<svg xmlns="http://www.w3.org/2000/svg" viewBox="0 0 512 512">
  <rect width="512" height="512" rx="108" fill="#f8fafc"/>
  <path d="M137 121h238v58h-91v221h-56V179h-91z" fill="#111827"/>
  <path d="M137 121h108c55 0 91 31 91 79 0 47-36 79-91 79h-48v92h-60zm60 50v58h44c22 0 35-11 35-29s-13-29-35-29z" fill="#111827"/>
  <path d="M140 290l49 94 48-94h49l49 94 49-94h63l-84 150h-53l-49-88-49 88h-53l-84-150z" fill="#111827"/>
  <path d="M303 245h86l-92 145h93v50H207l92-145h-84v-50z" fill="#111827" opacity=".82"/>
  <path d="M224 270c42 0 67 22 67 57 0 28-18 45-49 66l-34 23h86v45H129l83-62c26-20 35-32 35-47 0-17-13-27-32-27-20 0-36 10-54 31l-34-29c23-36 52-57 97-57z" fill="#9ca3af"/>
  <path d="M309 389h32v32h-32z" fill="#c89b3c"/>
</svg>
